<mxfile host="app.diagrams.net" modified="2022-10-15T17:48:04.139Z" agent="5.0 (Windows NT 10.0; Win64; x64) AppleWebKit/537.36 (KHTML, like Gecko) Chrome/106.0.0.0 Safari/537.36" etag="6AIn-Bd2F7895btCC8DM" version="20.4.1" type="github">
  <diagram id="nxbP9ufkAd6UfLEAyTEt" name="Página-1">
    <mxGraphModel dx="2249" dy="762" grid="1" gridSize="10" guides="1" tooltips="1" connect="1" arrows="1" fold="1" page="1" pageScale="1" pageWidth="827" pageHeight="1169" math="0" shadow="0">
      <root>
        <mxCell id="0" />
        <mxCell id="1" parent="0" />
        <mxCell id="y1gLRwEpjePrzFJidSWK-38" style="edgeStyle=orthogonalEdgeStyle;rounded=0;orthogonalLoop=1;jettySize=auto;html=1;exitX=0;exitY=0.5;exitDx=0;exitDy=0;entryX=0;entryY=0.5;entryDx=0;entryDy=0;" parent="1" source="y1gLRwEpjePrzFJidSWK-4" target="y1gLRwEpjePrzFJidSWK-9" edge="1">
          <mxGeometry relative="1" as="geometry" />
        </mxCell>
        <UserObject label="Desconocimiento de tecnología y cómo llevar BPA al mundo digital" lucidchartObjectId="50w0yAb6vamF" id="y1gLRwEpjePrzFJidSWK-4">
          <mxCell style="html=1;overflow=block;blockSpacing=1;whiteSpace=wrap;fontSize=16.7;fontColor=#333333;align=center;spacing=9;strokeColor=#1071e5;strokeOpacity=100;rounded=1;absoluteArcSize=1;arcSize=9;strokeWidth=2.3;" parent="1" vertex="1">
            <mxGeometry x="-43" y="1221" width="210" height="88" as="geometry" />
          </mxCell>
        </UserObject>
        <UserObject label="MALAS PRÁCTICAS" lucidchartObjectId="nix0~V2PDqla" id="y1gLRwEpjePrzFJidSWK-5">
          <mxCell style="html=1;overflow=block;blockSpacing=1;whiteSpace=wrap;fontSize=16.7;fontColor=#333333;align=center;spacing=9;strokeColor=#e81313;strokeOpacity=100;rounded=1;absoluteArcSize=1;arcSize=9;strokeWidth=2.3;" parent="1" vertex="1">
            <mxGeometry x="-43" y="1090" width="870" height="90" as="geometry" />
          </mxCell>
        </UserObject>
        <mxCell id="y1gLRwEpjePrzFJidSWK-39" style="edgeStyle=orthogonalEdgeStyle;rounded=0;orthogonalLoop=1;jettySize=auto;html=1;exitX=0;exitY=0.5;exitDx=0;exitDy=0;entryX=0;entryY=0.5;entryDx=0;entryDy=0;" parent="1" source="y1gLRwEpjePrzFJidSWK-6" target="y1gLRwEpjePrzFJidSWK-11" edge="1">
          <mxGeometry relative="1" as="geometry" />
        </mxCell>
        <mxCell id="y1gLRwEpjePrzFJidSWK-40" style="edgeStyle=orthogonalEdgeStyle;rounded=0;orthogonalLoop=1;jettySize=auto;html=1;exitX=0;exitY=0.5;exitDx=0;exitDy=0;entryX=0;entryY=0.5;entryDx=0;entryDy=0;" parent="1" source="y1gLRwEpjePrzFJidSWK-6" target="y1gLRwEpjePrzFJidSWK-12" edge="1">
          <mxGeometry relative="1" as="geometry" />
        </mxCell>
        <UserObject label="Sin energía Eléctrica de calidad" lucidchartObjectId="5vx0oRoR8o8n" id="y1gLRwEpjePrzFJidSWK-6">
          <mxCell style="html=1;overflow=block;blockSpacing=1;whiteSpace=wrap;fontSize=16.7;fontColor=#333333;align=center;spacing=9;strokeColor=#1071e5;strokeOpacity=100;rounded=1;absoluteArcSize=1;arcSize=9;strokeWidth=2.3;" parent="1" vertex="1">
            <mxGeometry x="208" y="1221" width="169" height="88" as="geometry" />
          </mxCell>
        </UserObject>
        <mxCell id="y1gLRwEpjePrzFJidSWK-41" style="edgeStyle=orthogonalEdgeStyle;rounded=0;orthogonalLoop=1;jettySize=auto;html=1;exitX=0;exitY=0.5;exitDx=0;exitDy=0;entryX=0;entryY=0.5;entryDx=0;entryDy=0;" parent="1" source="y1gLRwEpjePrzFJidSWK-7" target="y1gLRwEpjePrzFJidSWK-13" edge="1">
          <mxGeometry relative="1" as="geometry" />
        </mxCell>
        <mxCell id="y1gLRwEpjePrzFJidSWK-42" style="edgeStyle=orthogonalEdgeStyle;rounded=0;orthogonalLoop=1;jettySize=auto;html=1;exitX=0;exitY=0.5;exitDx=0;exitDy=0;entryX=0;entryY=0.5;entryDx=0;entryDy=0;" parent="1" source="y1gLRwEpjePrzFJidSWK-7" target="y1gLRwEpjePrzFJidSWK-10" edge="1">
          <mxGeometry relative="1" as="geometry" />
        </mxCell>
        <mxCell id="y1gLRwEpjePrzFJidSWK-43" style="edgeStyle=orthogonalEdgeStyle;rounded=0;orthogonalLoop=1;jettySize=auto;html=1;exitX=0;exitY=0.5;exitDx=0;exitDy=0;entryX=0;entryY=0.5;entryDx=0;entryDy=0;" parent="1" source="y1gLRwEpjePrzFJidSWK-7" target="y1gLRwEpjePrzFJidSWK-14" edge="1">
          <mxGeometry relative="1" as="geometry" />
        </mxCell>
        <UserObject label="Sin equipos para medir variables y llevar trazabilidad" lucidchartObjectId="uwx0kRfbo4vk" id="y1gLRwEpjePrzFJidSWK-7">
          <mxCell style="html=1;overflow=block;blockSpacing=1;whiteSpace=wrap;fontSize=16.7;fontColor=#333333;align=center;spacing=9;strokeColor=#1071e5;strokeOpacity=100;rounded=1;absoluteArcSize=1;arcSize=9;strokeWidth=2.3;" parent="1" vertex="1">
            <mxGeometry x="418" y="1225" width="169" height="84" as="geometry" />
          </mxCell>
        </UserObject>
        <mxCell id="5jBU4jL0vWlWmlJcorjr-8" style="edgeStyle=orthogonalEdgeStyle;rounded=0;orthogonalLoop=1;jettySize=auto;html=1;exitX=0;exitY=0.5;exitDx=0;exitDy=0;entryX=0;entryY=0.5;entryDx=0;entryDy=0;" edge="1" parent="1" source="y1gLRwEpjePrzFJidSWK-8" target="y1gLRwEpjePrzFJidSWK-21">
          <mxGeometry relative="1" as="geometry" />
        </mxCell>
        <UserObject label="Sin motivación para acceder a capacitación en tecnología" lucidchartObjectId="0yx0bYM9q7a3" id="y1gLRwEpjePrzFJidSWK-8">
          <mxCell style="html=1;overflow=block;blockSpacing=1;whiteSpace=wrap;fontSize=16.7;fontColor=#333333;align=center;spacing=9;strokeColor=#1071e5;strokeOpacity=100;rounded=1;absoluteArcSize=1;arcSize=9;strokeWidth=2.3;" parent="1" vertex="1">
            <mxGeometry x="628" y="1225" width="199" height="85" as="geometry" />
          </mxCell>
        </UserObject>
        <UserObject label="Desconocen tecnología actual o es muy costosa" lucidchartObjectId="GBx0LkfUUHu6" id="y1gLRwEpjePrzFJidSWK-9">
          <mxCell style="html=1;overflow=block;blockSpacing=1;whiteSpace=wrap;fontSize=16.7;fontColor=#333333;align=center;spacing=9;strokeColor=#1071e5;strokeOpacity=100;rounded=1;absoluteArcSize=1;arcSize=9;strokeWidth=2.3;" parent="1" vertex="1">
            <mxGeometry x="47" y="1345" width="120" height="98" as="geometry" />
          </mxCell>
        </UserObject>
        <UserObject label="Sin posiblidad de trazabilidad" lucidchartObjectId="3Bx0pORC3kEz" id="y1gLRwEpjePrzFJidSWK-10">
          <mxCell style="html=1;overflow=block;blockSpacing=1;whiteSpace=wrap;fontSize=16.7;fontColor=#333333;align=center;spacing=9;strokeColor=#1071e5;strokeOpacity=100;rounded=1;absoluteArcSize=1;arcSize=9;strokeWidth=2.3;" parent="1" vertex="1">
            <mxGeometry x="467" y="1471" width="120" height="90" as="geometry" />
          </mxCell>
        </UserObject>
        <UserObject label="Energía intermitente y de mala calidad" lucidchartObjectId="NCx0BWLgL4xI" id="y1gLRwEpjePrzFJidSWK-11">
          <mxCell style="html=1;overflow=block;blockSpacing=1;whiteSpace=wrap;fontSize=16.7;fontColor=#333333;align=center;spacing=9;strokeColor=#1071e5;strokeOpacity=100;rounded=1;absoluteArcSize=1;arcSize=9;strokeWidth=2.3;" parent="1" vertex="1">
            <mxGeometry x="257" y="1345" width="120" height="98" as="geometry" />
          </mxCell>
        </UserObject>
        <UserObject label="Instalaciones eléctricas costosas" lucidchartObjectId="4Cx04Yee_8mW" id="y1gLRwEpjePrzFJidSWK-12">
          <mxCell style="html=1;overflow=block;blockSpacing=1;whiteSpace=wrap;fontSize=16.7;fontColor=#333333;align=center;spacing=9;strokeColor=#1071e5;strokeOpacity=100;rounded=1;absoluteArcSize=1;arcSize=9;strokeWidth=2.3;" parent="1" vertex="1">
            <mxGeometry x="257" y="1479" width="120" height="90" as="geometry" />
          </mxCell>
        </UserObject>
        <UserObject label="Sin posibilidad de medir" lucidchartObjectId="gDx0V2t9FzL9" id="y1gLRwEpjePrzFJidSWK-13">
          <mxCell style="html=1;overflow=block;blockSpacing=1;whiteSpace=wrap;fontSize=16.7;fontColor=#333333;align=center;spacing=9;strokeColor=#1071e5;strokeOpacity=100;rounded=1;absoluteArcSize=1;arcSize=9;strokeWidth=2.3;" parent="1" vertex="1">
            <mxGeometry x="467" y="1345" width="120" height="90" as="geometry" />
          </mxCell>
        </UserObject>
        <UserObject label="Sin posiblidad de comparar calidad cuando se implementan BPA" lucidchartObjectId="NDx0eiq1Wggg" id="y1gLRwEpjePrzFJidSWK-14">
          <mxCell style="html=1;overflow=block;blockSpacing=1;whiteSpace=wrap;fontSize=16.7;fontColor=#333333;align=center;spacing=9;strokeColor=#1071e5;strokeOpacity=100;rounded=1;absoluteArcSize=1;arcSize=9;strokeWidth=2.3;" parent="1" vertex="1">
            <mxGeometry x="467" y="1596" width="120" height="158" as="geometry" />
          </mxCell>
        </UserObject>
        <UserObject label="Preferencia culturar por procedimientos empíricos" lucidchartObjectId="iGx0gmcVgOEP" id="y1gLRwEpjePrzFJidSWK-21">
          <mxCell style="html=1;overflow=block;blockSpacing=1;whiteSpace=wrap;fontSize=16.7;fontColor=#333333;align=center;spacing=9;strokeColor=#1071e5;strokeOpacity=100;rounded=1;absoluteArcSize=1;arcSize=9;strokeWidth=2.3;" parent="1" vertex="1">
            <mxGeometry x="707" y="1341" width="120" height="98" as="geometry" />
          </mxCell>
        </UserObject>
        <UserObject label="" lucidchartObjectId="vHx0NTHHManW" id="y1gLRwEpjePrzFJidSWK-23">
          <mxCell style="html=1;jettySize=18;whiteSpace=wrap;fontSize=13;strokeColor=#1071e5;strokeOpacity=100;strokeWidth=1.5;rounded=1;arcSize=12;edgeStyle=orthogonalEdgeStyle;startArrow=none;endArrow=block;endFill=1;exitX=0.5;exitY=-0.012;exitPerimeter=0;entryX=0.121;entryY=1.012;entryPerimeter=0;" parent="1" source="y1gLRwEpjePrzFJidSWK-4" target="y1gLRwEpjePrzFJidSWK-5" edge="1">
            <mxGeometry width="100" height="100" relative="1" as="geometry">
              <Array as="points" />
            </mxGeometry>
          </mxCell>
        </UserObject>
        <UserObject label="" lucidchartObjectId="xHx0nz4e0jUj" id="y1gLRwEpjePrzFJidSWK-24">
          <mxCell style="html=1;jettySize=18;whiteSpace=wrap;fontSize=13;strokeColor=#1071e5;strokeOpacity=100;strokeWidth=1.5;rounded=1;arcSize=12;edgeStyle=orthogonalEdgeStyle;startArrow=none;endArrow=block;endFill=1;exitX=0.5;exitY=-0.012;exitPerimeter=0;entryX=0.386;entryY=1.012;entryPerimeter=0;" parent="1" source="y1gLRwEpjePrzFJidSWK-6" target="y1gLRwEpjePrzFJidSWK-5" edge="1">
            <mxGeometry width="100" height="100" relative="1" as="geometry">
              <Array as="points" />
            </mxGeometry>
          </mxCell>
        </UserObject>
        <UserObject label="" lucidchartObjectId="zHx0vyu-2az-" id="y1gLRwEpjePrzFJidSWK-25">
          <mxCell style="html=1;jettySize=18;whiteSpace=wrap;fontSize=13;strokeColor=#1071e5;strokeOpacity=100;strokeWidth=1.5;rounded=1;arcSize=12;edgeStyle=orthogonalEdgeStyle;startArrow=none;endArrow=block;endFill=1;exitX=0.5;exitY=-0.013;exitPerimeter=0;entryX=0.627;entryY=1.012;entryPerimeter=0;" parent="1" source="y1gLRwEpjePrzFJidSWK-7" target="y1gLRwEpjePrzFJidSWK-5" edge="1">
            <mxGeometry width="100" height="100" relative="1" as="geometry">
              <Array as="points" />
            </mxGeometry>
          </mxCell>
        </UserObject>
        <UserObject label="" lucidchartObjectId="BHx0bPGhEJXR" id="y1gLRwEpjePrzFJidSWK-26">
          <mxCell style="html=1;jettySize=18;whiteSpace=wrap;fontSize=13;strokeColor=#1071e5;strokeOpacity=100;strokeWidth=1.5;rounded=1;arcSize=12;edgeStyle=orthogonalEdgeStyle;startArrow=none;endArrow=block;endFill=1;exitX=0.5;exitY=-0.013;exitPerimeter=0;entryX=0.886;entryY=1.012;entryPerimeter=0;" parent="1" source="y1gLRwEpjePrzFJidSWK-8" target="y1gLRwEpjePrzFJidSWK-5" edge="1">
            <mxGeometry width="100" height="100" relative="1" as="geometry">
              <Array as="points" />
            </mxGeometry>
          </mxCell>
        </UserObject>
        <UserObject label="Procedimientos en papel sin almacenamiento digital ni trazabilidad" lucidchartObjectId="PHx09gBbS~Wa" id="y1gLRwEpjePrzFJidSWK-27">
          <mxCell style="html=1;overflow=block;blockSpacing=1;whiteSpace=wrap;fontSize=16.7;fontColor=#333333;align=center;spacing=9;strokeColor=#008a0e;strokeOpacity=100;rounded=1;absoluteArcSize=1;arcSize=9;strokeWidth=2.3;" parent="1" vertex="1">
            <mxGeometry x="-43" y="950" width="210" height="94" as="geometry" />
          </mxCell>
        </UserObject>
        <mxCell id="5jBU4jL0vWlWmlJcorjr-7" style="edgeStyle=orthogonalEdgeStyle;rounded=0;orthogonalLoop=1;jettySize=auto;html=1;exitX=1;exitY=0.5;exitDx=0;exitDy=0;entryX=1;entryY=0.5;entryDx=0;entryDy=0;" edge="1" parent="1" source="y1gLRwEpjePrzFJidSWK-28" target="y1gLRwEpjePrzFJidSWK-36">
          <mxGeometry relative="1" as="geometry" />
        </mxCell>
        <UserObject label="No se pueden instalar equipos electrónicos" lucidchartObjectId="8Hx0z74Eu40t" id="y1gLRwEpjePrzFJidSWK-28">
          <mxCell style="html=1;overflow=block;blockSpacing=1;whiteSpace=wrap;fontSize=16.7;fontColor=#333333;align=center;spacing=9;strokeColor=#008a0e;strokeOpacity=100;rounded=1;absoluteArcSize=1;arcSize=9;strokeWidth=2.3;" parent="1" vertex="1">
            <mxGeometry x="208" y="951" width="169" height="94" as="geometry" />
          </mxCell>
        </UserObject>
        <mxCell id="5jBU4jL0vWlWmlJcorjr-5" style="edgeStyle=orthogonalEdgeStyle;rounded=0;orthogonalLoop=1;jettySize=auto;html=1;exitX=1;exitY=0.5;exitDx=0;exitDy=0;entryX=1;entryY=0.578;entryDx=0;entryDy=0;entryPerimeter=0;" edge="1" parent="1" source="y1gLRwEpjePrzFJidSWK-29" target="y1gLRwEpjePrzFJidSWK-37">
          <mxGeometry relative="1" as="geometry" />
        </mxCell>
        <mxCell id="5jBU4jL0vWlWmlJcorjr-6" style="edgeStyle=orthogonalEdgeStyle;rounded=0;orthogonalLoop=1;jettySize=auto;html=1;exitX=1;exitY=0.5;exitDx=0;exitDy=0;entryX=1;entryY=0.5;entryDx=0;entryDy=0;" edge="1" parent="1" source="y1gLRwEpjePrzFJidSWK-29" target="5jBU4jL0vWlWmlJcorjr-3">
          <mxGeometry relative="1" as="geometry" />
        </mxCell>
        <UserObject label="Cacao de baja calidad" lucidchartObjectId=".Hx0B2oDnWfM" id="y1gLRwEpjePrzFJidSWK-29">
          <mxCell style="html=1;overflow=block;blockSpacing=1;whiteSpace=wrap;fontSize=16.7;fontColor=#333333;align=center;spacing=9;strokeColor=#008a0e;strokeOpacity=100;rounded=1;absoluteArcSize=1;arcSize=9;strokeWidth=2.3;" parent="1" vertex="1">
            <mxGeometry x="418" y="951" width="174" height="94" as="geometry" />
          </mxCell>
        </UserObject>
        <mxCell id="5jBU4jL0vWlWmlJcorjr-4" style="edgeStyle=orthogonalEdgeStyle;rounded=0;orthogonalLoop=1;jettySize=auto;html=1;exitX=1;exitY=0.5;exitDx=0;exitDy=0;entryX=1;entryY=0.5;entryDx=0;entryDy=0;" edge="1" parent="1" source="y1gLRwEpjePrzFJidSWK-30" target="5jBU4jL0vWlWmlJcorjr-1">
          <mxGeometry relative="1" as="geometry" />
        </mxCell>
        <UserObject label="Conocimiento desactualizado de nuevas técnicas con nuevas tecnologías" lucidchartObjectId="zIx0m9s~_KKR" id="y1gLRwEpjePrzFJidSWK-30">
          <mxCell style="html=1;overflow=block;blockSpacing=1;whiteSpace=wrap;fontSize=16.7;fontColor=#333333;align=center;spacing=9;strokeColor=#008a0e;strokeOpacity=100;rounded=1;absoluteArcSize=1;arcSize=9;strokeWidth=2.3;" parent="1" vertex="1">
            <mxGeometry x="628" y="951" width="199" height="98" as="geometry" />
          </mxCell>
        </UserObject>
        <UserObject label="" lucidchartObjectId="LIx0cviYYW0X" id="y1gLRwEpjePrzFJidSWK-31">
          <mxCell style="html=1;jettySize=18;whiteSpace=wrap;fontSize=13;strokeColor=#008a0e;strokeOpacity=100;strokeWidth=1.5;rounded=1;arcSize=12;edgeStyle=orthogonalEdgeStyle;startArrow=none;endArrow=block;endFill=1;exitX=0.12;exitY=-0.012;exitPerimeter=0;entryX=0.497;entryY=1.012;entryPerimeter=0;" parent="1" source="y1gLRwEpjePrzFJidSWK-5" target="y1gLRwEpjePrzFJidSWK-27" edge="1">
            <mxGeometry width="100" height="100" relative="1" as="geometry">
              <Array as="points" />
            </mxGeometry>
          </mxCell>
        </UserObject>
        <UserObject label="" lucidchartObjectId="WIx0hoiDE~Fc" id="y1gLRwEpjePrzFJidSWK-32">
          <mxCell style="html=1;jettySize=18;whiteSpace=wrap;fontSize=13;strokeColor=#008a0e;strokeOpacity=100;strokeWidth=1.5;rounded=1;arcSize=12;edgeStyle=orthogonalEdgeStyle;startArrow=none;endArrow=block;endFill=1;exitX=0.387;exitY=-0.012;exitPerimeter=0;entryX=0.504;entryY=1.012;entryPerimeter=0;" parent="1" source="y1gLRwEpjePrzFJidSWK-5" target="y1gLRwEpjePrzFJidSWK-28" edge="1">
            <mxGeometry width="100" height="100" relative="1" as="geometry">
              <Array as="points" />
            </mxGeometry>
          </mxCell>
        </UserObject>
        <UserObject label="" lucidchartObjectId="0Ix01q2j21pl" id="y1gLRwEpjePrzFJidSWK-33">
          <mxCell style="html=1;jettySize=18;whiteSpace=wrap;fontSize=13;strokeColor=#008a0e;strokeOpacity=100;strokeWidth=1.5;rounded=1;arcSize=12;edgeStyle=orthogonalEdgeStyle;startArrow=none;endArrow=block;endFill=1;exitX=0.626;exitY=-0.012;exitPerimeter=0;entryX=0.48;entryY=1.012;entryPerimeter=0;" parent="1" source="y1gLRwEpjePrzFJidSWK-5" target="y1gLRwEpjePrzFJidSWK-29" edge="1">
            <mxGeometry width="100" height="100" relative="1" as="geometry">
              <Array as="points" />
            </mxGeometry>
          </mxCell>
        </UserObject>
        <UserObject label="" lucidchartObjectId="7Ix0qphxRs9T" id="y1gLRwEpjePrzFJidSWK-34">
          <mxCell style="html=1;jettySize=18;whiteSpace=wrap;fontSize=13;strokeColor=#008a0e;strokeOpacity=100;strokeWidth=1.5;rounded=1;arcSize=12;edgeStyle=orthogonalEdgeStyle;startArrow=none;endArrow=block;endFill=1;exitX=0.887;exitY=-0.012;exitPerimeter=0;entryX=0.503;entryY=1.011;entryPerimeter=0;" parent="1" source="y1gLRwEpjePrzFJidSWK-5" target="y1gLRwEpjePrzFJidSWK-30" edge="1">
            <mxGeometry width="100" height="100" relative="1" as="geometry">
              <Array as="points" />
            </mxGeometry>
          </mxCell>
        </UserObject>
        <UserObject label="Proceso" lucidchartObjectId="TUx0KD6sIN2B" id="y1gLRwEpjePrzFJidSWK-35">
          <mxCell style="html=1;overflow=block;blockSpacing=1;whiteSpace=wrap;fontSize=16.7;fontColor=#333333;align=center;spacing=9;strokeColor=#008a0e;strokeOpacity=100;rounded=1;absoluteArcSize=1;arcSize=9;strokeWidth=2.3;" parent="1" vertex="1">
            <mxGeometry x="47" y="830" width="120" height="90" as="geometry" />
          </mxCell>
        </UserObject>
        <UserObject label="Daño de equipos mala calidad de energía" lucidchartObjectId="XUx0ePm0GKDe" id="y1gLRwEpjePrzFJidSWK-36">
          <mxCell style="html=1;overflow=block;blockSpacing=1;whiteSpace=wrap;fontSize=16.7;fontColor=#333333;align=center;spacing=9;strokeColor=#008a0e;strokeOpacity=100;rounded=1;absoluteArcSize=1;arcSize=9;strokeWidth=2.3;" parent="1" vertex="1">
            <mxGeometry x="230" y="830" width="147" height="90" as="geometry" />
          </mxCell>
        </UserObject>
        <UserObject label="No cumple norma técnica NTC1252 y baja ingresos" lucidchartObjectId="1Ux0ggHsKn-0" id="y1gLRwEpjePrzFJidSWK-37">
          <mxCell style="html=1;overflow=block;blockSpacing=1;whiteSpace=wrap;fontSize=16.7;fontColor=#333333;align=center;spacing=9;strokeColor=#008a0e;strokeOpacity=100;rounded=1;absoluteArcSize=1;arcSize=9;strokeWidth=2.3;" parent="1" vertex="1">
            <mxGeometry x="439" y="830" width="153" height="90" as="geometry" />
          </mxCell>
        </UserObject>
        <UserObject label="Sin evolución ni mejoramiento de procesos" lucidchartObjectId="1Ux0ggHsKn-0" id="5jBU4jL0vWlWmlJcorjr-1">
          <mxCell style="html=1;overflow=block;blockSpacing=1;whiteSpace=wrap;fontSize=16.7;fontColor=#333333;align=center;spacing=9;strokeColor=#008a0e;strokeOpacity=100;rounded=1;absoluteArcSize=1;arcSize=9;strokeWidth=2.3;" vertex="1" parent="1">
            <mxGeometry x="690" y="830" width="137" height="90" as="geometry" />
          </mxCell>
        </UserObject>
        <UserObject label="Envejecimiento del campo por abandono" lucidchartObjectId="1Ux0ggHsKn-0" id="5jBU4jL0vWlWmlJcorjr-3">
          <mxCell style="html=1;overflow=block;blockSpacing=1;whiteSpace=wrap;fontSize=16.7;fontColor=#333333;align=center;spacing=9;strokeColor=#008a0e;strokeOpacity=100;rounded=1;absoluteArcSize=1;arcSize=9;strokeWidth=2.3;" vertex="1" parent="1">
            <mxGeometry x="449" y="710" width="143" height="90" as="geometry" />
          </mxCell>
        </UserObject>
      </root>
    </mxGraphModel>
  </diagram>
</mxfile>
